<svg width="1200" height="260" viewBox="0 0 1200 260" fill="none" xmlns="http://www.w3.org/2000/svg">
  <defs>
    <linearGradient id="bg" x1="0" y1="0" x2="1200" y2="260" gradientUnits="userSpaceOnUse">
      <stop stop-color="#020617" />
      <stop offset="0.48" stop-color="#07142F" />
      <stop offset="1" stop-color="#1E1B4B" />
    </linearGradient>
    <linearGradient id="accent" x1="200" y1="20" x2="990" y2="260" gradientUnits="userSpaceOnUse">
      <stop stop-color="#38BDF8" />
      <stop offset="0.55" stop-color="#6366F1" />
      <stop offset="1" stop-color="#A855F7" />
    </linearGradient>
    <radialGradient id="glowA" cx="0" cy="0" r="1" gradientUnits="userSpaceOnUse" gradientTransform="translate(930 78) rotate(124) scale(250 155)">
      <stop stop-color="#38BDF8" stop-opacity="0.36" />
      <stop offset="1" stop-color="#38BDF8" stop-opacity="0" />
    </radialGradient>
    <radialGradient id="glowB" cx="0" cy="0" r="1" gradientUnits="userSpaceOnUse" gradientTransform="translate(286 221) rotate(35) scale(270 145)">
      <stop stop-color="#8B5CF6" stop-opacity="0.3" />
      <stop offset="1" stop-color="#8B5CF6" stop-opacity="0" />
    </radialGradient>
    <filter id="softShadow" x="-20%" y="-20%" width="140%" height="140%" color-interpolation-filters="sRGB">
      <feDropShadow dx="0" dy="18" stdDeviation="22" flood-color="#020617" flood-opacity="0.55" />
    </filter>
    <pattern id="grid" width="36" height="36" patternUnits="userSpaceOnUse">
      <path d="M36 0H0V36" stroke="#94A3B8" stroke-opacity="0.08" stroke-width="1" />
    </pattern>
  </defs>

  <rect width="1200" height="260" rx="34" fill="url(#bg)" />
  <rect width="1200" height="260" rx="34" fill="url(#grid)" />
  <rect width="1200" height="260" rx="34" fill="url(#glowA)" />
  <rect width="1200" height="260" rx="34" fill="url(#glowB)" />

  <path d="M0 184C116 160 157 216 267 196C384 175 391 104 514 99C641 94 663 166 788 151C923 135 946 53 1070 49C1126 47 1164 60 1200 77V260H0V184Z" fill="url(#accent)" opacity="0.11" />
  <path d="M88 41H1112C1125.25 41 1136 51.7452 1136 65V202C1136 215.255 1125.25 226 1112 226H88C74.7452 226 64 215.255 64 202V65C64 51.7452 74.7452 41 88 41Z" fill="#020617" fill-opacity="0.58" stroke="#38BDF8" stroke-opacity="0.18" filter="url(#softShadow)" />

  <circle cx="95" cy="70" r="6" fill="#EF4444" />
  <circle cx="116" cy="70" r="6" fill="#F59E0B" />
  <circle cx="137" cy="70" r="6" fill="#22C55E" />
  <path d="M176 70H392" stroke="#CBD5E1" stroke-opacity="0.12" stroke-width="8" stroke-linecap="round" />
  <path d="M986 70H1096" stroke="#38BDF8" stroke-opacity="0.28" stroke-width="8" stroke-linecap="round" />

  <text x="91" y="113" fill="#38BDF8" font-family="Consolas, 'JetBrains Mono', monospace" font-size="22" font-weight="700">const</text>
  <text x="154" y="113" fill="#E0F2FE" font-family="Consolas, 'JetBrains Mono', monospace" font-size="22" font-weight="700">developer</text>
  <text x="279" y="113" fill="#94A3B8" font-family="Consolas, 'JetBrains Mono', monospace" font-size="22" font-weight="700">=</text>
  <text x="310" y="113" fill="#A78BFA" font-family="Consolas, 'JetBrains Mono', monospace" font-size="22" font-weight="700">"Mohamed Abdelkarim"</text>
  <text x="590" y="113" fill="#94A3B8" font-family="Consolas, 'JetBrains Mono', monospace" font-size="22" font-weight="700">;</text>

  <text x="91" y="154" fill="#64748B" font-family="Consolas, 'JetBrains Mono', monospace" font-size="18">// full-stack systems • automation • scraping • AI workflows</text>

  <text x="91" y="195" fill="#E0F2FE" font-family="Consolas, 'JetBrains Mono', monospace" font-size="26" font-weight="800">build()</text>
  <text x="201" y="195" fill="#94A3B8" font-family="Consolas, 'JetBrains Mono', monospace" font-size="26" font-weight="800">.</text>
  <text x="222" y="195" fill="#38BDF8" font-family="Consolas, 'JetBrains Mono', monospace" font-size="26" font-weight="800">automate()</text>
  <text x="383" y="195" fill="#94A3B8" font-family="Consolas, 'JetBrains Mono', monospace" font-size="26" font-weight="800">.</text>
  <text x="404" y="195" fill="#A78BFA" font-family="Consolas, 'JetBrains Mono', monospace" font-size="26" font-weight="800">ship()</text>
  <rect x="510" y="173" width="13" height="28" rx="3" fill="#38BDF8">
    <animate attributeName="opacity" values="1;0.15;1" dur="1.1s" repeatCount="indefinite" />
  </rect>

  <g opacity="0.85">
    <rect x="770" y="100" width="300" height="88" rx="18" fill="#0F172A" fill-opacity="0.74" stroke="#38BDF8" stroke-opacity="0.18" />
    <text x="794" y="132" fill="#38BDF8" font-family="Consolas, 'JetBrains Mono', monospace" font-size="16" font-weight="700">STATUS</text>
    <text x="794" y="160" fill="#E0F2FE" font-family="Consolas, 'JetBrains Mono', monospace" font-size="18" font-weight="700">production-ready mindset</text>
    <path d="M1031 130L1042 141L1064 115" stroke="#22C55E" stroke-width="5" stroke-linecap="round" stroke-linejoin="round" />
  </g>

  <path d="M742 93C781 67 823 60 867 71" stroke="#38BDF8" stroke-opacity="0.26" stroke-width="2" stroke-dasharray="8 10" />
  <path d="M703 203C753 226 814 223 862 194" stroke="#A78BFA" stroke-opacity="0.25" stroke-width="2" stroke-dasharray="8 10" />
  <circle cx="744" cy="93" r="4" fill="#38BDF8" />
  <circle cx="862" cy="194" r="4" fill="#A78BFA" />
</svg>
